PathFileType	4	(X/Y/Z)	Kaydara	
DataRate	CameraRate	NumFrames	NumMarkers	Units	OrigDataRate	OrigDataStartFrame	OrigNumFrames	
120.00	120.00	4	72	mm	120.00	66	261	
Frame#	Time	Hips			RightUpLeg			RightLeg			RightFoot			RightFoot_End			LeftUpLeg			LeftLeg			LeftFoot			LeftFoot_End			Spine			Spine1			Spine2			Spine3			Neck			Head			Head_End			RightShoulder			RightArm			RightForeArm			RightHand			RightHandThumb1			RightHandThumb2			RightHandThumb3			RightHandThumb3_End			RightInHandIndex			RightHandIndex1			RightHandIndex2			RightHandIndex3			RightHandIndex3_End			RightInHandMiddle			RightHandMiddle1			RightHandMiddle2			RightHandMiddle3			RightHandMiddle3_End			RightInHandRing			RightHandRing1			RightHandRing2			RightHandRing3			RightHandRing3_End			RightInHandPinky			RightHandPinky1			RightHandPinky2			RightHandPinky3			RightHandPinky3_End			LeftShoulder			LeftArm			LeftForeArm			LeftHand			LeftHandThumb1			LeftHandThumb2			LeftHandThumb3			LeftHandThumb3_End			LeftInHandIndex			LeftHandIndex1			LeftHandIndex2			LeftHandIndex3			LeftHandIndex3_End			LeftInHandMiddle			LeftHandMiddle1			LeftHandMiddle2			LeftHandMiddle3			LeftHandMiddle3_End			LeftInHandRing			LeftHandRing1			LeftHandRing2			LeftHandRing3			LeftHandRing3_End			LeftInHandPinky			LeftHandPinky1			LeftHandPinky2			LeftHandPinky3			LeftHandPinky3_End			
		X1	Y1	Z1	X2	Y2	Z2	X3	Y3	Z3	X4	Y4	Z4	X5	Y5	Z5	X6	Y6	Z6	X7	Y7	Z7	X8	Y8	Z8	X9	Y9	Z9	X10	Y10	Z10	X11	Y11	Z11	X12	Y12	Z12	X13	Y13	Z13	X14	Y14	Z14	X15	Y15	Z15	X16	Y16	Z16	X17	Y17	Z17	X18	Y18	Z18	X19	Y19	Z19	X20	Y20	Z20	X21	Y21	Z21	X22	Y22	Z22	X23	Y23	Z23	X24	Y24	Z24	X25	Y25	Z25	X26	Y26	Z26	X27	Y27	Z27	X28	Y28	Z28	X29	Y29	Z29	X30	Y30	Z30	X31	Y31	Z31	X32	Y32	Z32	X33	Y33	Z33	X34	Y34	Z34	X35	Y35	Z35	X36	Y36	Z36	X37	Y37	Z37	X38	Y38	Z38	X39	Y39	Z39	X40	Y40	Z40	X41	Y41	Z41	X42	Y42	Z42	X43	Y43	Z43	X44	Y44	Z44	X45	Y45	Z45	X46	Y46	Z46	X47	Y47	Z47	X48	Y48	Z48	X49	Y49	Z49	X50	Y50	Z50	X51	Y51	Z51	X52	Y52	Z52	X53	Y53	Z53	X54	Y54	Z54	X55	Y55	Z55	X56	Y56	Z56	X57	Y57	Z57	X58	Y58	Z58	X59	Y59	Z59	X60	Y60	Z60	X61	Y61	Z61	X62	Y62	Z62	X63	Y63	Z63	X64	Y64	Z64	X65	Y65	Z65	X66	Y66	Z66	X67	Y67	Z67	X68	Y68	Z68	X69	Y69	Z69	X70	Y70	Z70	X71	Y71	Z71	X72	Y72	Z72	

66	0.542	6081.203	893.81699	129.612	6164.289630626098	901.6902994255034	88.93446185562047	6058.133989217453	500.97506195430276	29.242757769481482	6041.625514496002	114.53558621057374	8.196984870928315	5930.782196762016	42.71412639687846	146.5445618981594	6011.178744287238	859.6856021384498	183.137198537861	5903.58832981915	471.0729902092329	296.26018289925634	5790.244564974988	72.38540034213662	455.22386367068907	5634.8195647440025	30.690003506040256	352.54678808479474	6020.303362206303	1014.4294814165236	82.71364709706144	5960.4587751364925	1075.989806198609	37.30200123008737	5894.240030489903	1133.854687484068	-12.783129819914873	5826.108411180612	1179.1456554641306	-65.38295302197713	5751.90744922248	1228.9660326842834	-118.42015053154469	5677.5790232972995	1268.628499088091	-160.25550573772983	5539.551086945594	1348.3330334669977	-164.84498047992045	5798.383976949296	1227.218451133343	-117.68796560124991	5877.515742929555	1282.5678452618226	-195.9489480635556	5963.388388348089	1066.5661634588755	-307.0553799177617	6143.173567235008	922.4065806283127	-399.6020015364496	6160.6028719916785	930.9651409667296	-429.62893211708234	6162.114363727371	919.7786023461995	-460.6279745295649	6163.601498533041	908.229525553046	-480.41545893380817	6165.212994216221	895.3860316748662	-495.371356181171	6165.865995674233	919.1065875618057	-425.7327742940056	6193.0353907432445	896.5247974553306	-459.84730389667163	6200.691577921968	876.3745199249206	-484.643470765604	6196.813493481425	866.226523127122	-499.4580749970377	6187.777052954782	859.432024400144	-511.31461699537806	6165.567427724734	909.4584867468425	-419.69917437602305	6191.909352307447	882.215492726165	-449.70958438351676	6200.122198977673	859.0221932572165	-475.8616765785317	6195.375471055945	846.2006126866695	-493.3004454821177	6185.4549185302985	838.4850201731072	-506.0624183708059	6164.785659553665	903.2343304343489	-414.55018859798025	6188.073025098502	873.4628840628994	-436.92987636643153	6195.043799268165	852.058296894543	-458.7515437050307	6190.36556887262	839.0593254648059	-475.0561206038856	6180.9905257846385	831.5054570136288	-486.81082783244665	6162.132572051151	896.5890328218029	-407.75104983759263	6182.275777192779	865.2323460023247	-424.0442548064584	6187.462616089834	846.3667389266267	-439.9034092133344	6183.85917260715	836.0505009219975	-451.0148833273731	6175.444416329859	828.8786041175808	-460.9780839174873	5754.614214702367	1196.0403931066714	-84.49666898242909	5695.948166972971	1093.9322227832142	-39.560971479711455	5906.326000153367	1021.3044018989216	-170.14179598283505	6110.24002928852	954.6078841294649	-302.45838650620476	6131.037533329536	975.2088382120638	-324.3249536740092	6164.288961393003	985.8740173809028	-324.0394600642892	6188.650533273162	989.3613844755715	-322.63498054532147	6209.990798858602	988.8982014404237	-320.43271452387233	6136.802475931746	962.9553839057052	-324.2465550192393	6183.877174809534	961.1870540092516	-343.3827959077275	6219.113794380407	960.0644347677118	-344.7488355922025	6237.7455299407175	962.7723494683936	-338.53544194118115	6250.958017983804	967.3110402280695	-328.6286338860029	6138.559895856559	952.3062697343879	-319.73325518267364	6185.425025962249	944.8213533131135	-335.96033353510546	6223.957472171276	942.197094975906	-336.7784351335213	6246.4754496299465	944.792644023148	-328.95946186462925	6260.951492466593	949.4323758251261	-317.9627164948451	6138.592334029854	944.8005910484202	-316.1735568906702	6180.597867166402	931.4975508223247	-327.9693032520308	6214.193228069586	927.7921517305123	-327.9681126691601	6235.919085992934	929.5426888291121	-320.0467664468766	6249.532806006153	933.5483449607422	-309.52729239369364	6137.328210116833	936.4154171964987	-310.5925602867651	6175.064775392207	918.9526674215086	-318.37058462342804	6201.799697377172	913.8313639810117	-317.2030067243728	6217.565845751045	914.0661724107539	-310.8608092003953	6229.578894643453	917.0148265867596	-301.2174845370444
67	0.55	6081.203	893.81699	129.612	6164.539892338624	902.0356517007382	89.58526205728428	6058.28270546799	501.2039982517004	30.76582903101616	6041.3051031649475	114.79908585760424	10.324240151651521	5930.584642882554	43.03321167950913	148.75573670504903	6010.879344949925	859.3179203056742	182.49385933053193	5902.818966093604	470.8514468456363	295.6829551156973	5788.591702902522	73.0385990075864	456.408868390879	5633.332408281877	31.846266053214883	353.25240310345197	6020.440603282155	1014.4806053504241	82.67280061228172	5960.688503538705	1076.124461573584	37.24702261202126	5894.5777399489725	1134.0982455763358	-12.861660588769935	5826.580570040673	1179.549258292798	-65.50708527667294	5752.490796074333	1229.5182090687729	-118.57039664694183	5678.058136462952	1269.1582962237057	-160.2507371300474	5539.949865749254	1348.726218342958	-164.77653287681696	5798.972142708084	1228.113016798764	-117.49093393557878	5878.59545809964	1285.4340755286794	-194.37217627256112	5968.058183658197	1071.6558632197366	-307.74308040451433	6151.297598923144	932.2004619610099	-401.70937522299187	6169.221468246995	941.8063298462815	-431.3525580104638	6171.363323841841	931.3971982605337	-462.7696042554377	6173.28733734991	920.3384332723617	-482.936075010986	6175.261237555725	907.8599982551265	-498.2831029293696	6174.516773555375	929.8892355279341	-427.6786153190529	6202.507817923712	908.505875294132	-462.12189041026966	6210.765927295	889.0375744223688	-487.4546810947636	6207.216557904502	879.178733182549	-502.6747808120101	6198.421503806702	872.5326219118098	-514.9154343493936	6174.185309750172	920.0532825924043	-421.88724792731097	6201.310844302011	893.8776351198385	-452.34924234006735	6210.173539699789	871.3996440224676	-479.11817803852057	6205.8200504832475	858.9130676062681	-497.06117295451696	6196.161992737012	851.3531041099593	-510.2507307135836	6173.359177116203	913.6672748470257	-416.8985244446312	6197.309844943403	884.7161221477977	-439.81476798666444	6204.838674420428	863.9038005483278	-462.20536588446754	6200.5353166979685	851.2113979321726	-479.01292434831646	6191.404982124905	843.7960080042694	-491.1775429014077	6170.63238416893	906.7893070462187	-410.29415596445983	6191.338268000826	876.0467946161691	-427.1913264999293	6196.956050314339	857.6031885746569	-443.5525497535554	6193.618336293448	847.4852816016125	-455.053389663795	6185.415918003322	840.4215043810428	-465.39264773671215	5755.1349017351295	1196.1559625933282	-84.99774126094327	5696.049409928665	1093.1301021796016	-42.08161441225227	5908.445440435814	1024.3971115725094	-172.39056525008044	6114.5036650287075	962.3288188207924	-304.09907947122167	6135.539523300377	983.7971728699008	-325.2448775620438	6168.742744348002	994.9061404989986	-324.202487315958	6193.077747635621	998.6719292569335	-322.3459867494614	6214.401854846046	998.4146488650654	-319.8311209221427	6141.387684438738	971.5617627771612	-325.3870007001593	6188.822820493043	970.8239596121773	-343.961387529045	6224.116655225961	970.1606417591756	-344.84293899991354	6242.644013376447	972.9575608450184	-338.2594577234664	6255.6757090239425	977.4373460677414	-327.9998655100683	6143.1424027852645	960.7812088950966	-321.093023372581	6190.357686493543	954.230414850225	-336.8907444333141	6228.9507984194115	952.0863377843727	-337.2108178563103	6251.341999805041	954.779185666214	-328.96005282332203	6265.619810374764	959.349562839481	-317.58444646508974	6143.1658179866345	953.1589934456131	-317.70394239776857	6185.483421711948	940.5996252381988	-329.2668934751277	6219.129277673138	937.2897805843394	-328.8636037283493	6240.7315850953355	939.1219694714428	-320.5427452704261	6254.158317273445	943.0566329128791	-309.67509535807676	6141.864439738864	944.5889866115239	-312.3254048471907	6179.8713745231935	927.7035137122665	-320.01900183660086	6206.64163948686	922.8598519486027	-318.58034195742476	6222.315206668673	923.1353017843069	-311.9713626044667	6234.1611973118015	926.0101817414959	-302.03378209096314
68	0.558	6081.203	893.81699	129.612	6164.779857360219	902.3717296440564	90.23200223828889	6058.4327915339045	501.4244572621858	32.27049222642996	6040.988006932639	115.05745318930623	12.41449950717968	5930.3926331771045	43.34359580432424	150.92844918611928	6010.590786651608	858.9605535970078	181.85567753551817	5902.064672941236	470.63782281156597	295.1055758376795	5786.956285341947	73.6968077174233	457.56757361231195	5631.875763611334	32.98913931646241	353.92397507510225	6020.576607324668	1014.5281243853597	82.62588051787398	5960.917245113216	1076.2525237172572	37.18260714268367	5894.914690624876	1134.3318961243604	-12.952543466210718	5827.051782915241	1179.9392222420734	-65.644866970502	5753.073080036761	1230.0527577002465	-118.73632776427843	5678.536325291145	1269.6679074644871	-160.26400570871465	5540.346060396065	1349.0957630745975	-164.7316690774913	5799.555031978252	1228.9824411699988	-117.30838721194816	5879.648947768993	1288.2248707135168	-192.79716186441996	5972.700840425001	1076.6953576495262	-308.33216168273816	6159.317515514279	941.9837794250653	-403.66225960591834	6177.713343704314	952.6332026840325	-432.90461942439276	6180.474892226768	943.0102947556842	-464.71771135414093	6182.830302025108	932.449467843458	-485.2485193283318	6185.163703454851	920.3437209281134	-500.97501523978667	6183.044806067001	940.6617283022099	-429.4540479032559	6211.840311766509	920.4865009140968	-464.2023059711779	6220.693384607313	901.7113258230306	-490.0529439911638	6217.470896107983	892.1490212685205	-505.66695675489086	6208.917391291576	885.6577101567395	-518.2821963530948	6182.686582885844	930.6418372054509	-423.9073812099193	6210.582280571675	905.5451160721749	-454.7991184615666	6220.088103044598	883.7950897138909	-482.1648087383293	6216.126057995031	871.652657863143	-500.59824780417813	6206.730876578175	864.2554544587217	-514.2050611394336	6181.820818343469	924.096462633689	-419.0812923841602	6206.426724262496	895.9780416899282	-442.51664168159544	6214.508663038718	875.7695004072956	-465.4591035255189	6210.578931672522	863.3927399766693	-482.75658508637275	6201.693894035741	856.1226552339471	-495.3215143053911	6179.026599159549	916.9886671253796	-412.67494186213827	6200.29149164206	886.8733820140415	-430.1621419716968	6206.337716042126	868.8616977706947	-447.01253476313224	6203.265528304377	858.9490786844605	-458.8935866054754	6195.27637549097	851.9996632846735	-469.6006110643194	5755.658789263788	1196.2642818206682	-85.51385309634789	5696.17113120334	1092.3619396486183	-44.60201996926659	5910.537230117087	1027.4780300533462	-174.58318706617644	6118.683949395829	970.0236606661274	-305.6168680120416	6139.93813121162	992.3476003879629	-326.034145572796	6173.079830687627	1003.8903368235145	-324.23833697505955	6197.3804044514045	1007.9289827638432	-321.9321309411337	6218.683007316245	1007.8741751108026	-319.10650442990857	6145.872184788395	980.1343243040241	-326.3943656758066	6193.648837963185	980.4200174236342	-344.39671595023714	6228.989646076666	980.2105327719823	-344.79380360808983	6247.408183366502	983.0921350307414	-337.8450298347922	6260.256706485622	987.5088163783277	-327.23984662883583	6147.628837684464	969.2263917411864	-322.320113032947	6195.178327781849	963.6050595647102	-337.67876060840683	6233.821606359297	961.9357548191948	-337.5009274558734	6256.080995573357	964.7209558865943	-328.8242014015482	6270.158127456005	969.2175148417471	-317.0776268424952	6147.646963905512	961.4907017396918	-319.1021184325708	6190.265516808757	949.673527061306	-330.4237545430721	6223.953433908399	946.7550998386515	-329.61858483225757	6245.427713942452	948.6644766983827	-320.90389848639114	6258.665338503569	952.5240958689619	-309.6955224288577	6146.313374017844	952.7394871606348	-313.92746575740284	6184.58349918514	936.4322136740775	-321.5294455171597	6211.383521003056	931.8637880585111	-319.82009352714914	6226.961806265033	932.1770622425006	-312.94858221089606	6238.63918589193	934.9748315067599	-302.7234047548118
69	0.567	6081.203	893.81699	129.612	6165.009514767547	902.6982147803749	90.87424915092703	6058.584281160808	501.6362956846493	33.755061579596195	6040.67448978644	115.31037752988412	14.465558325427255	5930.206232650028	43.64491595461529	153.06035067222143	6010.313072390923	858.6138254486531	181.22309977430206	5901.32610624877	470.43227334925547	294.5285415436966	5785.3400398610565	74.35927283100389	458.6990280597496	5630.451190529304	34.117147619419484	354.56112527631353	6020.711454834655	1014.5720660937627	82.57284157181452	5961.145145795421	1076.3740398729337	37.10866697132815	5895.251080735601	1134.5556956014138	-13.055903712065582	5827.522259947285	1180.3155681240714	-65.79644394974436	5753.654558209063	1230.5696923084406	-118.91813651157061	5679.014116995684	1270.1575687439904	-160.29578321048584	5540.740424614603	1349.4422671171453	-164.71120925573766	5800.13296489548	1229.8263844933397	-117.14086792342312	5880.676561455017	1290.9381203182386	-191.22618735642908	5977.312752684371	1081.6795179884375	-308.82354470181974	6167.226630069198	951.7461813590824	-405.46086256922354	6186.071320065075	963.4342435413657	-434.28607687073423	6189.441127276514	954.6052973833741	-466.4730166728302	6192.221918863843	944.5493433951548	-487.3532242755821	6194.911474192526	932.8233884431663	-503.44718104077594	6191.442886670519	951.4126483196528	-431.05973768250794	6221.024788638868	932.453886398168	-466.08915389060405	6230.465155898789	914.3820787251342	-492.4384358008422	6227.567286140023	905.1232108729548	-508.4344070259381	6219.255148395123	898.7927704430457	-521.4143272080386	6191.064064949973	941.2129451522127	-425.759893186805	6219.715636646713	917.2055082777878	-457.05928351504093	6229.857095367902	896.1951452727028	-485.0011275214171	6226.284186438442	884.405433549215	-503.91075781052444	6217.151886724487	877.1777544847596	-517.9240709046073	6190.16344148092	934.5108728491234	-421.0985711334928	6215.415803985632	907.2366858248356	-445.03515421873357	6224.045243020755	887.6426399660324	-468.5119205212262	6220.487400295289	875.5900689126892	-486.28578754253033	6211.847896173496	868.4717799512739	-499.24101398218534	6187.30814067962	927.1763472151663	-414.89318683041546	6209.127756706724	897.7006395798891	-432.95591926405916	6215.5994055726005	880.1302164829385	-450.2821166001836	6212.792189593248	870.4294868362355	-462.5338426538185	6205.016922146836	863.6003941939888	-473.5999569713499	5756.186022083298	1196.3657125580546	-86.04479859427367	5696.3135067308995	1091.628599455622	-47.11978782690295	5912.600317173375	1030.5435631152236	-176.7181773545544	6122.778220601561	977.6842392367842	-307.01160839328605	6144.230588599577	1000.85114958969	-326.69364280018044	6177.297651949423	1012.8174206015152	-324.14877968803796	6201.556061080526	1017.123238991316	-321.395701123051	6222.831907008956	1017.2673988851899	-318.2614993622873	6150.2531122639575	988.6640641996275	-327.26927111964505	6198.352168000323	989.9653352443978	-344.69021240140944	6233.729776520557	990.2039408501493	-344.6034361033904	6252.035230397609	993.1659677353879	-337.29454723137127	6264.698443752342	997.5155562289207	-326.35129913446474	6152.016315707064	977.6329405618997	-323.41484750436075	6199.883864320934	972.9356120697715	-338.32533440467165	6238.566883797481	971.7353908893118	-337.65030230284424	6260.689642140034	974.6080847002355	-328.55388705216643	6274.5639142758055	979.0265955935329	-316.4445915950207	6152.032875481059	969.7869468338732	-320.368176638115	6194.941059938117	958.7098564495196	-331.44033890425607	6228.662666687458	956.1784875206891	-330.23397538996244	6250.004651364803	958.1606822758349	-321.13154769055524	6263.051297663266	961.9414308483381	-309.5902175073077	6150.672126405453	960.8583279911395	-315.3985489328996	6189.198081435385	945.1296958940418	-322.9018745827525	6216.022322555999	940.8339597293759	-320.92252433944384	6231.50277686951	941.1823273332025	-313.79299045171365	6243.010213012206	943.899859186799	-303.28714100091906
